%TF.GenerationSoftware,KiCad,Pcbnew,8.0.1*%
%TF.CreationDate,2024-03-19T14:53:38-04:00*%
%TF.ProjectId,EncoderClone,456e636f-6465-4724-936c-6f6e652e6b69,rev?*%
%TF.SameCoordinates,Original*%
%TF.FileFunction,Legend,Bot*%
%TF.FilePolarity,Positive*%
%FSLAX46Y46*%
G04 Gerber Fmt 4.6, Leading zero omitted, Abs format (unit mm)*
G04 Created by KiCad (PCBNEW 8.0.1) date 2024-03-19 14:53:38*
%MOMM*%
%LPD*%
G01*
G04 APERTURE LIST*
G04 Aperture macros list*
%AMRoundRect*
0 Rectangle with rounded corners*
0 $1 Rounding radius*
0 $2 $3 $4 $5 $6 $7 $8 $9 X,Y pos of 4 corners*
0 Add a 4 corners polygon primitive as box body*
4,1,4,$2,$3,$4,$5,$6,$7,$8,$9,$2,$3,0*
0 Add four circle primitives for the rounded corners*
1,1,$1+$1,$2,$3*
1,1,$1+$1,$4,$5*
1,1,$1+$1,$6,$7*
1,1,$1+$1,$8,$9*
0 Add four rect primitives between the rounded corners*
20,1,$1+$1,$2,$3,$4,$5,0*
20,1,$1+$1,$4,$5,$6,$7,0*
20,1,$1+$1,$6,$7,$8,$9,0*
20,1,$1+$1,$8,$9,$2,$3,0*%
G04 Aperture macros list end*
%ADD10C,0.150000*%
%ADD11C,0.120000*%
%ADD12RoundRect,0.038000X-0.850000X-0.850000X0.850000X-0.850000X0.850000X0.850000X-0.850000X0.850000X0*%
%ADD13O,1.776000X1.776000*%
G04 APERTURE END LIST*
D10*
X151913220Y-81519819D02*
X151913220Y-80519819D01*
X151913220Y-80519819D02*
X151341792Y-81519819D01*
X151341792Y-81519819D02*
X151341792Y-80519819D01*
X150865601Y-81519819D02*
X150865601Y-80853152D01*
X150865601Y-80519819D02*
X150913220Y-80567438D01*
X150913220Y-80567438D02*
X150865601Y-80615057D01*
X150865601Y-80615057D02*
X150817982Y-80567438D01*
X150817982Y-80567438D02*
X150865601Y-80519819D01*
X150865601Y-80519819D02*
X150865601Y-80615057D01*
X149960840Y-81472200D02*
X150056078Y-81519819D01*
X150056078Y-81519819D02*
X150246554Y-81519819D01*
X150246554Y-81519819D02*
X150341792Y-81472200D01*
X150341792Y-81472200D02*
X150389411Y-81424580D01*
X150389411Y-81424580D02*
X150437030Y-81329342D01*
X150437030Y-81329342D02*
X150437030Y-81043628D01*
X150437030Y-81043628D02*
X150389411Y-80948390D01*
X150389411Y-80948390D02*
X150341792Y-80900771D01*
X150341792Y-80900771D02*
X150246554Y-80853152D01*
X150246554Y-80853152D02*
X150056078Y-80853152D01*
X150056078Y-80853152D02*
X149960840Y-80900771D01*
X149532268Y-81519819D02*
X149532268Y-80519819D01*
X149437030Y-81138866D02*
X149151316Y-81519819D01*
X149151316Y-80853152D02*
X149532268Y-81234104D01*
X147389411Y-81424580D02*
X147437030Y-81472200D01*
X147437030Y-81472200D02*
X147579887Y-81519819D01*
X147579887Y-81519819D02*
X147675125Y-81519819D01*
X147675125Y-81519819D02*
X147817982Y-81472200D01*
X147817982Y-81472200D02*
X147913220Y-81376961D01*
X147913220Y-81376961D02*
X147960839Y-81281723D01*
X147960839Y-81281723D02*
X148008458Y-81091247D01*
X148008458Y-81091247D02*
X148008458Y-80948390D01*
X148008458Y-80948390D02*
X147960839Y-80757914D01*
X147960839Y-80757914D02*
X147913220Y-80662676D01*
X147913220Y-80662676D02*
X147817982Y-80567438D01*
X147817982Y-80567438D02*
X147675125Y-80519819D01*
X147675125Y-80519819D02*
X147579887Y-80519819D01*
X147579887Y-80519819D02*
X147437030Y-80567438D01*
X147437030Y-80567438D02*
X147389411Y-80615057D01*
X146960839Y-81424580D02*
X146913220Y-81472200D01*
X146913220Y-81472200D02*
X146960839Y-81519819D01*
X146960839Y-81519819D02*
X147008458Y-81472200D01*
X147008458Y-81472200D02*
X146960839Y-81424580D01*
X146960839Y-81424580D02*
X146960839Y-81519819D01*
X145008459Y-80472200D02*
X145865601Y-81757914D01*
X143246554Y-81615057D02*
X143341792Y-81567438D01*
X143341792Y-81567438D02*
X143437030Y-81472200D01*
X143437030Y-81472200D02*
X143579887Y-81329342D01*
X143579887Y-81329342D02*
X143675125Y-81281723D01*
X143675125Y-81281723D02*
X143770363Y-81281723D01*
X143722744Y-81519819D02*
X143817982Y-81472200D01*
X143817982Y-81472200D02*
X143913220Y-81376961D01*
X143913220Y-81376961D02*
X143960839Y-81186485D01*
X143960839Y-81186485D02*
X143960839Y-80853152D01*
X143960839Y-80853152D02*
X143913220Y-80662676D01*
X143913220Y-80662676D02*
X143817982Y-80567438D01*
X143817982Y-80567438D02*
X143722744Y-80519819D01*
X143722744Y-80519819D02*
X143532268Y-80519819D01*
X143532268Y-80519819D02*
X143437030Y-80567438D01*
X143437030Y-80567438D02*
X143341792Y-80662676D01*
X143341792Y-80662676D02*
X143294173Y-80853152D01*
X143294173Y-80853152D02*
X143294173Y-81186485D01*
X143294173Y-81186485D02*
X143341792Y-81376961D01*
X143341792Y-81376961D02*
X143437030Y-81472200D01*
X143437030Y-81472200D02*
X143532268Y-81519819D01*
X143532268Y-81519819D02*
X143722744Y-81519819D01*
X142437030Y-80853152D02*
X142437030Y-81519819D01*
X142865601Y-80853152D02*
X142865601Y-81376961D01*
X142865601Y-81376961D02*
X142817982Y-81472200D01*
X142817982Y-81472200D02*
X142722744Y-81519819D01*
X142722744Y-81519819D02*
X142579887Y-81519819D01*
X142579887Y-81519819D02*
X142484649Y-81472200D01*
X142484649Y-81472200D02*
X142437030Y-81424580D01*
X141960839Y-81519819D02*
X141960839Y-80853152D01*
X141960839Y-80519819D02*
X142008458Y-80567438D01*
X142008458Y-80567438D02*
X141960839Y-80615057D01*
X141960839Y-80615057D02*
X141913220Y-80567438D01*
X141913220Y-80567438D02*
X141960839Y-80519819D01*
X141960839Y-80519819D02*
X141960839Y-80615057D01*
X141579887Y-80853152D02*
X141056078Y-80853152D01*
X141056078Y-80853152D02*
X141579887Y-81519819D01*
X141579887Y-81519819D02*
X141056078Y-81519819D01*
X140246554Y-80853152D02*
X140246554Y-81853152D01*
X140246554Y-81472200D02*
X140341792Y-81519819D01*
X140341792Y-81519819D02*
X140532268Y-81519819D01*
X140532268Y-81519819D02*
X140627506Y-81472200D01*
X140627506Y-81472200D02*
X140675125Y-81424580D01*
X140675125Y-81424580D02*
X140722744Y-81329342D01*
X140722744Y-81329342D02*
X140722744Y-81043628D01*
X140722744Y-81043628D02*
X140675125Y-80948390D01*
X140675125Y-80948390D02*
X140627506Y-80900771D01*
X140627506Y-80900771D02*
X140532268Y-80853152D01*
X140532268Y-80853152D02*
X140341792Y-80853152D01*
X140341792Y-80853152D02*
X140246554Y-80900771D01*
X139341792Y-80853152D02*
X139341792Y-81519819D01*
X139770363Y-80853152D02*
X139770363Y-81376961D01*
X139770363Y-81376961D02*
X139722744Y-81472200D01*
X139722744Y-81472200D02*
X139627506Y-81519819D01*
X139627506Y-81519819D02*
X139484649Y-81519819D01*
X139484649Y-81519819D02*
X139389411Y-81472200D01*
X139389411Y-81472200D02*
X139341792Y-81424580D01*
X138484649Y-81472200D02*
X138579887Y-81519819D01*
X138579887Y-81519819D02*
X138770363Y-81519819D01*
X138770363Y-81519819D02*
X138865601Y-81472200D01*
X138865601Y-81472200D02*
X138913220Y-81376961D01*
X138913220Y-81376961D02*
X138913220Y-80996009D01*
X138913220Y-80996009D02*
X138865601Y-80900771D01*
X138865601Y-80900771D02*
X138770363Y-80853152D01*
X138770363Y-80853152D02*
X138579887Y-80853152D01*
X138579887Y-80853152D02*
X138484649Y-80900771D01*
X138484649Y-80900771D02*
X138437030Y-80996009D01*
X138437030Y-80996009D02*
X138437030Y-81091247D01*
X138437030Y-81091247D02*
X138913220Y-81186485D01*
X152677506Y-88419819D02*
X152677506Y-89134104D01*
X152677506Y-89134104D02*
X152725125Y-89276961D01*
X152725125Y-89276961D02*
X152820363Y-89372200D01*
X152820363Y-89372200D02*
X152963220Y-89419819D01*
X152963220Y-89419819D02*
X153058458Y-89419819D01*
X151725125Y-89419819D02*
X152201315Y-89419819D01*
X152201315Y-89419819D02*
X152201315Y-88419819D01*
X150820363Y-89324580D02*
X150867982Y-89372200D01*
X150867982Y-89372200D02*
X151010839Y-89419819D01*
X151010839Y-89419819D02*
X151106077Y-89419819D01*
X151106077Y-89419819D02*
X151248934Y-89372200D01*
X151248934Y-89372200D02*
X151344172Y-89276961D01*
X151344172Y-89276961D02*
X151391791Y-89181723D01*
X151391791Y-89181723D02*
X151439410Y-88991247D01*
X151439410Y-88991247D02*
X151439410Y-88848390D01*
X151439410Y-88848390D02*
X151391791Y-88657914D01*
X151391791Y-88657914D02*
X151344172Y-88562676D01*
X151344172Y-88562676D02*
X151248934Y-88467438D01*
X151248934Y-88467438D02*
X151106077Y-88419819D01*
X151106077Y-88419819D02*
X151010839Y-88419819D01*
X151010839Y-88419819D02*
X150867982Y-88467438D01*
X150867982Y-88467438D02*
X150820363Y-88515057D01*
X150106077Y-88419819D02*
X150106077Y-89134104D01*
X150106077Y-89134104D02*
X150153696Y-89276961D01*
X150153696Y-89276961D02*
X150248934Y-89372200D01*
X150248934Y-89372200D02*
X150391791Y-89419819D01*
X150391791Y-89419819D02*
X150487029Y-89419819D01*
X149153696Y-89419819D02*
X149629886Y-89419819D01*
X149629886Y-89419819D02*
X149629886Y-88419819D01*
X148248934Y-89324580D02*
X148296553Y-89372200D01*
X148296553Y-89372200D02*
X148439410Y-89419819D01*
X148439410Y-89419819D02*
X148534648Y-89419819D01*
X148534648Y-89419819D02*
X148677505Y-89372200D01*
X148677505Y-89372200D02*
X148772743Y-89276961D01*
X148772743Y-89276961D02*
X148820362Y-89181723D01*
X148820362Y-89181723D02*
X148867981Y-88991247D01*
X148867981Y-88991247D02*
X148867981Y-88848390D01*
X148867981Y-88848390D02*
X148820362Y-88657914D01*
X148820362Y-88657914D02*
X148772743Y-88562676D01*
X148772743Y-88562676D02*
X148677505Y-88467438D01*
X148677505Y-88467438D02*
X148534648Y-88419819D01*
X148534648Y-88419819D02*
X148439410Y-88419819D01*
X148439410Y-88419819D02*
X148296553Y-88467438D01*
X148296553Y-88467438D02*
X148248934Y-88515057D01*
X147534648Y-88419819D02*
X147534648Y-89134104D01*
X147534648Y-89134104D02*
X147582267Y-89276961D01*
X147582267Y-89276961D02*
X147677505Y-89372200D01*
X147677505Y-89372200D02*
X147820362Y-89419819D01*
X147820362Y-89419819D02*
X147915600Y-89419819D01*
X146582267Y-89419819D02*
X147058457Y-89419819D01*
X147058457Y-89419819D02*
X147058457Y-88419819D01*
X145677505Y-89324580D02*
X145725124Y-89372200D01*
X145725124Y-89372200D02*
X145867981Y-89419819D01*
X145867981Y-89419819D02*
X145963219Y-89419819D01*
X145963219Y-89419819D02*
X146106076Y-89372200D01*
X146106076Y-89372200D02*
X146201314Y-89276961D01*
X146201314Y-89276961D02*
X146248933Y-89181723D01*
X146248933Y-89181723D02*
X146296552Y-88991247D01*
X146296552Y-88991247D02*
X146296552Y-88848390D01*
X146296552Y-88848390D02*
X146248933Y-88657914D01*
X146248933Y-88657914D02*
X146201314Y-88562676D01*
X146201314Y-88562676D02*
X146106076Y-88467438D01*
X146106076Y-88467438D02*
X145963219Y-88419819D01*
X145963219Y-88419819D02*
X145867981Y-88419819D01*
X145867981Y-88419819D02*
X145725124Y-88467438D01*
X145725124Y-88467438D02*
X145677505Y-88515057D01*
X144963219Y-88419819D02*
X144963219Y-89134104D01*
X144963219Y-89134104D02*
X145010838Y-89276961D01*
X145010838Y-89276961D02*
X145106076Y-89372200D01*
X145106076Y-89372200D02*
X145248933Y-89419819D01*
X145248933Y-89419819D02*
X145344171Y-89419819D01*
X144010838Y-89419819D02*
X144487028Y-89419819D01*
X144487028Y-89419819D02*
X144487028Y-88419819D01*
X143106076Y-89324580D02*
X143153695Y-89372200D01*
X143153695Y-89372200D02*
X143296552Y-89419819D01*
X143296552Y-89419819D02*
X143391790Y-89419819D01*
X143391790Y-89419819D02*
X143534647Y-89372200D01*
X143534647Y-89372200D02*
X143629885Y-89276961D01*
X143629885Y-89276961D02*
X143677504Y-89181723D01*
X143677504Y-89181723D02*
X143725123Y-88991247D01*
X143725123Y-88991247D02*
X143725123Y-88848390D01*
X143725123Y-88848390D02*
X143677504Y-88657914D01*
X143677504Y-88657914D02*
X143629885Y-88562676D01*
X143629885Y-88562676D02*
X143534647Y-88467438D01*
X143534647Y-88467438D02*
X143391790Y-88419819D01*
X143391790Y-88419819D02*
X143296552Y-88419819D01*
X143296552Y-88419819D02*
X143153695Y-88467438D01*
X143153695Y-88467438D02*
X143106076Y-88515057D01*
X142733333Y-85784819D02*
X142733333Y-86499104D01*
X142733333Y-86499104D02*
X142780952Y-86641961D01*
X142780952Y-86641961D02*
X142876190Y-86737200D01*
X142876190Y-86737200D02*
X143019047Y-86784819D01*
X143019047Y-86784819D02*
X143114285Y-86784819D01*
X141733333Y-86784819D02*
X142304761Y-86784819D01*
X142019047Y-86784819D02*
X142019047Y-85784819D01*
X142019047Y-85784819D02*
X142114285Y-85927676D01*
X142114285Y-85927676D02*
X142209523Y-86022914D01*
X142209523Y-86022914D02*
X142304761Y-86070533D01*
D11*
%TO.C,J1*%
X135970000Y-87575000D02*
X135970000Y-88845000D01*
X135970000Y-88845000D02*
X137240000Y-88845000D01*
X138282929Y-82115000D02*
X138680000Y-82115000D01*
X138282929Y-82875000D02*
X138680000Y-82875000D01*
X138282929Y-84655000D02*
X138680000Y-84655000D01*
X138282929Y-85415000D02*
X138680000Y-85415000D01*
X138350000Y-87195000D02*
X138680000Y-87195000D01*
X138350000Y-87955000D02*
X138680000Y-87955000D01*
X138680000Y-81165000D02*
X141340000Y-81165000D01*
X138680000Y-83765000D02*
X141340000Y-83765000D01*
X138680000Y-86305000D02*
X141340000Y-86305000D01*
X138680000Y-88905000D02*
X138680000Y-81165000D01*
X141340000Y-81165000D02*
X141340000Y-88905000D01*
X141340000Y-82875000D02*
X147340000Y-82875000D01*
X141340000Y-85415000D02*
X147340000Y-85415000D01*
X141340000Y-87295000D02*
X147340000Y-87295000D01*
X141340000Y-87415000D02*
X147340000Y-87415000D01*
X141340000Y-87535000D02*
X147340000Y-87535000D01*
X141340000Y-87655000D02*
X147340000Y-87655000D01*
X141340000Y-87775000D02*
X147340000Y-87775000D01*
X141340000Y-87895000D02*
X147340000Y-87895000D01*
X141340000Y-87955000D02*
X147340000Y-87955000D01*
X141340000Y-88905000D02*
X138680000Y-88905000D01*
X147340000Y-82115000D02*
X141340000Y-82115000D01*
X147340000Y-82875000D02*
X147340000Y-82115000D01*
X147340000Y-84655000D02*
X141340000Y-84655000D01*
X147340000Y-85415000D02*
X147340000Y-84655000D01*
X147340000Y-87195000D02*
X141340000Y-87195000D01*
X147340000Y-87955000D02*
X147340000Y-87195000D01*
%TD*%
%LPC*%
D12*
%TO.C,J1*%
X137240000Y-87575000D03*
D13*
X137240000Y-85035000D03*
X137240000Y-82495000D03*
%TD*%
%LPD*%
M02*
