%TF.GenerationSoftware,KiCad,Pcbnew,8.0.1*%
%TF.CreationDate,2024-03-19T14:53:38-04:00*%
%TF.ProjectId,EncoderClone,456e636f-6465-4724-936c-6f6e652e6b69,rev?*%
%TF.SameCoordinates,Original*%
%TF.FileFunction,Legend,Top*%
%TF.FilePolarity,Positive*%
%FSLAX46Y46*%
G04 Gerber Fmt 4.6, Leading zero omitted, Abs format (unit mm)*
G04 Created by KiCad (PCBNEW 8.0.1) date 2024-03-19 14:53:38*
%MOMM*%
%LPD*%
G01*
G04 APERTURE LIST*
G04 Aperture macros list*
%AMRoundRect*
0 Rectangle with rounded corners*
0 $1 Rounding radius*
0 $2 $3 $4 $5 $6 $7 $8 $9 X,Y pos of 4 corners*
0 Add a 4 corners polygon primitive as box body*
4,1,4,$2,$3,$4,$5,$6,$7,$8,$9,$2,$3,0*
0 Add four circle primitives for the rounded corners*
1,1,$1+$1,$2,$3*
1,1,$1+$1,$4,$5*
1,1,$1+$1,$6,$7*
1,1,$1+$1,$8,$9*
0 Add four rect primitives between the rounded corners*
20,1,$1+$1,$2,$3,$4,$5,0*
20,1,$1+$1,$4,$5,$6,$7,0*
20,1,$1+$1,$6,$7,$8,$9,0*
20,1,$1+$1,$8,$9,$2,$3,0*%
G04 Aperture macros list end*
%ADD10C,0.150000*%
%ADD11C,0.120000*%
%ADD12RoundRect,0.174000X0.231500X0.174000X-0.231500X0.174000X-0.231500X-0.174000X0.231500X-0.174000X0*%
%ADD13RoundRect,0.179000X-0.216500X-0.179000X0.216500X-0.179000X0.216500X0.179000X-0.216500X0.179000X0*%
%ADD14RoundRect,0.169000X-0.844000X-0.169000X0.844000X-0.169000X0.844000X0.169000X-0.844000X0.169000X0*%
%ADD15RoundRect,0.038000X-0.850000X-0.850000X0.850000X-0.850000X0.850000X0.850000X-0.850000X0.850000X0*%
%ADD16O,1.776000X1.776000*%
G04 APERTURE END LIST*
D10*
X139115833Y-84809580D02*
X139068214Y-84857200D01*
X139068214Y-84857200D02*
X138925357Y-84904819D01*
X138925357Y-84904819D02*
X138830119Y-84904819D01*
X138830119Y-84904819D02*
X138687262Y-84857200D01*
X138687262Y-84857200D02*
X138592024Y-84761961D01*
X138592024Y-84761961D02*
X138544405Y-84666723D01*
X138544405Y-84666723D02*
X138496786Y-84476247D01*
X138496786Y-84476247D02*
X138496786Y-84333390D01*
X138496786Y-84333390D02*
X138544405Y-84142914D01*
X138544405Y-84142914D02*
X138592024Y-84047676D01*
X138592024Y-84047676D02*
X138687262Y-83952438D01*
X138687262Y-83952438D02*
X138830119Y-83904819D01*
X138830119Y-83904819D02*
X138925357Y-83904819D01*
X138925357Y-83904819D02*
X139068214Y-83952438D01*
X139068214Y-83952438D02*
X139115833Y-84000057D01*
X139496786Y-84000057D02*
X139544405Y-83952438D01*
X139544405Y-83952438D02*
X139639643Y-83904819D01*
X139639643Y-83904819D02*
X139877738Y-83904819D01*
X139877738Y-83904819D02*
X139972976Y-83952438D01*
X139972976Y-83952438D02*
X140020595Y-84000057D01*
X140020595Y-84000057D02*
X140068214Y-84095295D01*
X140068214Y-84095295D02*
X140068214Y-84190533D01*
X140068214Y-84190533D02*
X140020595Y-84333390D01*
X140020595Y-84333390D02*
X139449167Y-84904819D01*
X139449167Y-84904819D02*
X140068214Y-84904819D01*
X150933333Y-83694819D02*
X150600000Y-83218628D01*
X150361905Y-83694819D02*
X150361905Y-82694819D01*
X150361905Y-82694819D02*
X150742857Y-82694819D01*
X150742857Y-82694819D02*
X150838095Y-82742438D01*
X150838095Y-82742438D02*
X150885714Y-82790057D01*
X150885714Y-82790057D02*
X150933333Y-82885295D01*
X150933333Y-82885295D02*
X150933333Y-83028152D01*
X150933333Y-83028152D02*
X150885714Y-83123390D01*
X150885714Y-83123390D02*
X150838095Y-83171009D01*
X150838095Y-83171009D02*
X150742857Y-83218628D01*
X150742857Y-83218628D02*
X150361905Y-83218628D01*
X151314286Y-82790057D02*
X151361905Y-82742438D01*
X151361905Y-82742438D02*
X151457143Y-82694819D01*
X151457143Y-82694819D02*
X151695238Y-82694819D01*
X151695238Y-82694819D02*
X151790476Y-82742438D01*
X151790476Y-82742438D02*
X151838095Y-82790057D01*
X151838095Y-82790057D02*
X151885714Y-82885295D01*
X151885714Y-82885295D02*
X151885714Y-82980533D01*
X151885714Y-82980533D02*
X151838095Y-83123390D01*
X151838095Y-83123390D02*
X151266667Y-83694819D01*
X151266667Y-83694819D02*
X151885714Y-83694819D01*
X139165833Y-83509580D02*
X139118214Y-83557200D01*
X139118214Y-83557200D02*
X138975357Y-83604819D01*
X138975357Y-83604819D02*
X138880119Y-83604819D01*
X138880119Y-83604819D02*
X138737262Y-83557200D01*
X138737262Y-83557200D02*
X138642024Y-83461961D01*
X138642024Y-83461961D02*
X138594405Y-83366723D01*
X138594405Y-83366723D02*
X138546786Y-83176247D01*
X138546786Y-83176247D02*
X138546786Y-83033390D01*
X138546786Y-83033390D02*
X138594405Y-82842914D01*
X138594405Y-82842914D02*
X138642024Y-82747676D01*
X138642024Y-82747676D02*
X138737262Y-82652438D01*
X138737262Y-82652438D02*
X138880119Y-82604819D01*
X138880119Y-82604819D02*
X138975357Y-82604819D01*
X138975357Y-82604819D02*
X139118214Y-82652438D01*
X139118214Y-82652438D02*
X139165833Y-82700057D01*
X140118214Y-83604819D02*
X139546786Y-83604819D01*
X139832500Y-83604819D02*
X139832500Y-82604819D01*
X139832500Y-82604819D02*
X139737262Y-82747676D01*
X139737262Y-82747676D02*
X139642024Y-82842914D01*
X139642024Y-82842914D02*
X139546786Y-82890533D01*
X145638571Y-84639164D02*
X145638571Y-85246307D01*
X145638571Y-85246307D02*
X145674285Y-85317735D01*
X145674285Y-85317735D02*
X145710000Y-85353450D01*
X145710000Y-85353450D02*
X145781428Y-85389164D01*
X145781428Y-85389164D02*
X145924285Y-85389164D01*
X145924285Y-85389164D02*
X145995714Y-85353450D01*
X145995714Y-85353450D02*
X146031428Y-85317735D01*
X146031428Y-85317735D02*
X146067142Y-85246307D01*
X146067142Y-85246307D02*
X146067142Y-84639164D01*
X146817142Y-85389164D02*
X146388571Y-85389164D01*
X146602856Y-85389164D02*
X146602856Y-84639164D01*
X146602856Y-84639164D02*
X146531428Y-84746307D01*
X146531428Y-84746307D02*
X146459999Y-84817735D01*
X146459999Y-84817735D02*
X146388571Y-84853450D01*
X150933333Y-87454819D02*
X150600000Y-86978628D01*
X150361905Y-87454819D02*
X150361905Y-86454819D01*
X150361905Y-86454819D02*
X150742857Y-86454819D01*
X150742857Y-86454819D02*
X150838095Y-86502438D01*
X150838095Y-86502438D02*
X150885714Y-86550057D01*
X150885714Y-86550057D02*
X150933333Y-86645295D01*
X150933333Y-86645295D02*
X150933333Y-86788152D01*
X150933333Y-86788152D02*
X150885714Y-86883390D01*
X150885714Y-86883390D02*
X150838095Y-86931009D01*
X150838095Y-86931009D02*
X150742857Y-86978628D01*
X150742857Y-86978628D02*
X150361905Y-86978628D01*
X151885714Y-87454819D02*
X151314286Y-87454819D01*
X151600000Y-87454819D02*
X151600000Y-86454819D01*
X151600000Y-86454819D02*
X151504762Y-86597676D01*
X151504762Y-86597676D02*
X151409524Y-86692914D01*
X151409524Y-86692914D02*
X151314286Y-86740533D01*
D11*
%TO.C,C2*%
X141498335Y-84810000D02*
X141266665Y-84810000D01*
X141498335Y-84090000D02*
X141266665Y-84090000D01*
%TO.C,R2*%
X150932379Y-84030000D02*
X151267621Y-84030000D01*
X150932379Y-84790000D02*
X151267621Y-84790000D01*
%TO.C,C1*%
X141498335Y-83560000D02*
X141266665Y-83560000D01*
X141498335Y-82840000D02*
X141266665Y-82840000D01*
%TO.C,U1*%
X146210000Y-82490000D02*
X142760000Y-82490000D01*
X146210000Y-82490000D02*
X148160000Y-82490000D01*
X146210000Y-87610000D02*
X144260000Y-87610000D01*
X146210000Y-87610000D02*
X148160000Y-87610000D01*
%TO.C,R1*%
X150932379Y-85300000D02*
X151267621Y-85300000D01*
X150932379Y-86060000D02*
X151267621Y-86060000D01*
%TD*%
%LPC*%
D12*
%TO.C,C2*%
X141950000Y-84450000D03*
X140815000Y-84450000D03*
%TD*%
D13*
%TO.C,R2*%
X150502500Y-84410000D03*
X151697500Y-84410000D03*
%TD*%
D12*
%TO.C,C1*%
X141950000Y-83200000D03*
X140815000Y-83200000D03*
%TD*%
D14*
%TO.C,U1*%
X143735000Y-83145000D03*
X143735000Y-84415000D03*
X143735000Y-85685000D03*
X143735000Y-86955000D03*
X148685000Y-86955000D03*
X148685000Y-85685000D03*
X148685000Y-84415000D03*
X148685000Y-83145000D03*
%TD*%
D13*
%TO.C,R1*%
X150502500Y-85680000D03*
X151697500Y-85680000D03*
%TD*%
D15*
%TO.C,J1*%
X137240000Y-87575000D03*
D16*
X137240000Y-85035000D03*
X137240000Y-82495000D03*
%TD*%
%LPD*%
M02*
