%TF.GenerationSoftware,KiCad,Pcbnew,8.0.1*%
%TF.CreationDate,2024-03-19T14:54:13-04:00*%
%TF.ProjectId,EncoderClone,456e636f-6465-4724-936c-6f6e652e6b69,rev?*%
%TF.SameCoordinates,Original*%
%TF.FileFunction,Component,L1,Top*%
%TF.FilePolarity,Positive*%
%FSLAX46Y46*%
G04 Gerber Fmt 4.6, Leading zero omitted, Abs format (unit mm)*
G04 Created by KiCad (PCBNEW 8.0.1) date 2024-03-19 14:54:13*
%MOMM*%
%LPD*%
G01*
G04 APERTURE LIST*
%TA.AperFunction,ComponentMain*%
%ADD10C,0.300000*%
%TD*%
%TA.AperFunction,ComponentOutline,Courtyard*%
%ADD11C,0.100000*%
%TD*%
%TA.AperFunction,ComponentPin*%
%ADD12P,0.360000X4X0.000000*%
%TD*%
%TA.AperFunction,ComponentPin*%
%ADD13C,0.100000*%
%TD*%
G04 APERTURE END LIST*
D10*
%TO.C,C2*%
%TO.CFtp,C_0402_1005Metric_Pad0.74x0.62mm_HandSolder*%
%TO.CVal,1uF*%
%TO.CLbN,Capacitor_SMD*%
%TO.CMnt,SMD*%
%TO.CRot,180*%
X141382500Y-84450000D03*
D11*
X142462499Y-83990001D02*
X142462499Y-84909999D01*
X140302501Y-84909999D01*
X140302501Y-83990001D01*
X142462499Y-83990001D01*
D12*
%TO.P,C2,1*%
X141950000Y-84450000D03*
D13*
%TO.P,C2,2*%
X140815000Y-84450000D03*
%TD*%
D10*
%TO.C,R2*%
%TO.CFtp,R_0402_1005Metric_Pad0.72x0.64mm_HandSolder*%
%TO.CVal,4K7*%
%TO.CLbN,Resistor_SMD*%
%TO.CMnt,SMD*%
%TO.CRot,0*%
X151100000Y-84410000D03*
D11*
X152199999Y-83940001D02*
X152199999Y-84879999D01*
X150000001Y-84879999D01*
X150000001Y-83940001D01*
X152199999Y-83940001D01*
D12*
%TO.P,R2,1*%
X150502500Y-84410000D03*
D13*
%TO.P,R2,2*%
X151697500Y-84410000D03*
%TD*%
D10*
%TO.C,C1*%
%TO.CFtp,C_0402_1005Metric_Pad0.74x0.62mm_HandSolder*%
%TO.CVal,1uF*%
%TO.CLbN,Capacitor_SMD*%
%TO.CMnt,SMD*%
%TO.CRot,180*%
X141382500Y-83200000D03*
D11*
X142462499Y-82740001D02*
X142462499Y-83659999D01*
X140302501Y-83659999D01*
X140302501Y-82740001D01*
X142462499Y-82740001D01*
D12*
%TO.P,C1,1*%
X141950000Y-83200000D03*
D13*
%TO.P,C1,2*%
X140815000Y-83200000D03*
%TD*%
D10*
%TO.C,U1*%
%TO.CFtp,SOIC-8_3.9x4.9mm_P1.27mm*%
%TO.CVal,AS5600*%
%TO.CLbN,Package_SO*%
%TO.CMnt,SMD*%
%TO.CRot,0*%
X146210000Y-85050000D03*
D11*
X149909999Y-82350001D02*
X149909999Y-87749999D01*
X142510001Y-87749999D01*
X142510001Y-82350001D01*
X149909999Y-82350001D01*
D12*
%TO.P,U1,1,VDD5V*%
X143735000Y-83145000D03*
D13*
%TO.P,U1,2,VDD3V3*%
X143735000Y-84415000D03*
%TO.P,U1,3,OUT*%
X143735000Y-85685000D03*
%TO.P,U1,4,GND*%
X143735000Y-86955000D03*
%TO.P,U1,5,PGO*%
X148685000Y-86955000D03*
%TO.P,U1,6,SDA*%
X148685000Y-85685000D03*
%TO.P,U1,7,SCL*%
X148685000Y-84415000D03*
%TO.P,U1,8,DIR*%
X148685000Y-83145000D03*
%TD*%
D10*
%TO.C,R1*%
%TO.CFtp,R_0402_1005Metric_Pad0.72x0.64mm_HandSolder*%
%TO.CVal,4K7*%
%TO.CLbN,Resistor_SMD*%
%TO.CMnt,SMD*%
%TO.CRot,0*%
X151100000Y-85680000D03*
D11*
X152199999Y-85210001D02*
X152199999Y-86149999D01*
X150000001Y-86149999D01*
X150000001Y-85210001D01*
X152199999Y-85210001D01*
D12*
%TO.P,R1,1*%
X150502500Y-85680000D03*
D13*
%TO.P,R1,2*%
X151697500Y-85680000D03*
%TD*%
M02*
